<?xml version="1.0" encoding="UTF-8"?>
<svg id="Layer_1" data-name="Layer 1" xmlns="http://www.w3.org/2000/svg" viewBox="0 0 107 86">

  
  <path d="M72.52,6.11c1.43,0,2.53.65,3.28,1.94.77,1.29,1.31,3.14,1.61,5.53.32,2.36.48,5.13.48,8.33,0,3.42-.19,6.54-.58,9.35-.36,2.77-.97,5-1.81,6.67-.82,1.63-1.9,2.45-3.24,2.45h-2.7V6.11h2.97Z"/>
  <path class="cls-1" d="M93.28,0c7.58,0,13.72,6.21,13.72,13.87v58.26c0,7.66-6.14,13.87-13.72,13.87H13.72c-7.58,0-13.72-6.21-13.72-13.87V13.87C0,6.21,6.14,0,13.72,0h79.56ZM61.14,3.15v2.97h3.35v73.91h-3.35v2.97h11.68v-2.97h-3.28v-36.67h1.98c1.64,0,2.88.38,3.72,1.14.87.76,1.46,2.09,1.78,3.99.32,1.86.48,4.52.48,7.98,0,1.82-.03,3.82-.1,5.99-.07,2.17-.1,4.33-.1,6.5,0,2.74.12,5.25.34,7.53.23,2.24.7,4.05,1.4,5.42.73,1.33,1.84,2,3.35,2,.64,0,1.24-.19,1.81-.57.57-.38,1.04-.95,1.4-1.71.39-.76.6-1.71.65-2.85h-1.6c-.02.46-.11.87-.27,1.25-.16.34-.34.51-.55.51-.39,0-.68-.51-.89-1.54-.18-1.06-.31-2.32-.38-3.76-.05-1.48-.07-2.87-.07-4.16,0-1.79.02-3.63.07-5.53.05-1.9.07-3.78.07-5.65,0-3.88-.21-7.13-.62-9.75-.41-2.66-1.18-4.69-2.32-6.1-1.12-1.41-2.78-2.15-4.99-2.22,1-.19,2-.7,3.01-1.54,1-.87,1.9-2.11,2.7-3.71.82-1.63,1.47-3.69,1.95-6.16.5-2.47.75-5.38.75-8.73,0-4.37-.41-7.91-1.23-10.61-.8-2.74-1.91-4.73-3.35-5.99-1.43-1.29-3.06-1.94-4.88-1.94h-12.5ZM31.12,14.68c-9.95,0-18.02,7.04-18.02,15.73,0,8.69,8.07,15.73,18.02,15.73s18.01-7.04,18.02-15.73c0-8.69-8.07-15.73-18.02-15.73Z"/>

</svg>