<?xml version="1.0" encoding="UTF-8"?>
<svg id="Layer_1" xmlns="http://www.w3.org/2000/svg" version="1.1" viewBox="0 0 107 86">
  <!-- Generator: Adobe Illustrator 29.4.0, SVG Export Plug-In . SVG Version: 2.1.0 Build 152)  -->
  <defs>
    <style>
      .st0 {
        fill-rule: evenodd;
      }
    </style>
  </defs>
  <path d="M72.5,6.1c1.4,0,2.5.6,3.3,1.9.8,1.3,1.3,3.1,1.6,5.5.3,2.4.5,5.1.5,8.3s-.2,6.5-.6,9.4c-.4,2.8-1,5-1.8,6.7-.8,1.6-1.9,2.5-3.2,2.5h-2.7V6.1h3Z"/>
  <path class="st0" d="M93.3,0c7.6,0,13.7,6.2,13.7,13.9v58.3c0,7.7-6.1,13.9-13.7,13.9H13.7c-7.6,0-13.7-6.2-13.7-13.9V13.9C0,6.2,6.1,0,13.7,0h79.6ZM61.1,3.1v3h3.3v73.9h-3.3v3h11.7v-3h-3.3v-36.7h2c1.6,0,2.9.4,3.7,1.1.9.8,1.5,2.1,1.8,4,.3,1.9.5,4.5.5,8s0,3.8-.1,6c0,2.2-.1,4.3-.1,6.5s.1,5.2.3,7.5c.2,2.2.7,4,1.4,5.4.7,1.3,1.8,2,3.3,2,.6,0,1.2-.2,1.8-.6.6-.4,1-.9,1.4-1.7.4-.8.6-1.7.6-2.9h-1.6c0,.5-.1.9-.3,1.3-.2.3-.3.5-.5.5-.4,0-.7-.5-.9-1.5-.2-1.1-.3-2.3-.4-3.8,0-1.5,0-2.9,0-4.2s0-3.6,0-5.5c0-1.9,0-3.8,0-5.6,0-3.9-.2-7.1-.6-9.8-.4-2.7-1.2-4.7-2.3-6.1-1.1-1.4-2.8-2.1-5-2.2,1-.2,2-.7,3-1.5,1-.9,1.9-2.1,2.7-3.7.8-1.6,1.5-3.7,1.9-6.2.5-2.5.8-5.4.8-8.7s-.4-7.9-1.2-10.6c-.8-2.7-1.9-4.7-3.3-6-1.4-1.3-3.1-1.9-4.9-1.9h-12.5ZM31.1,14.7c-9.9,0-18,7-18,15.7,0,8.7,8.1,15.7,18,15.7s18-7,18-15.7c0-8.7-8.1-15.7-18-15.7Z"/>
</svg>